<?xml version="1.0" encoding="utf-8"?><!-- Uploaded to: SVG Repo, www.svgrepo.com, Generator: SVG Repo Mixer Tools -->
<svg width="26" height="26" viewBox="0 0 26 26" fill="none" xmlns="http://www.w3.org/2000/svg">
<g clip-path="url(#clip0_49_531)">
<path d="M23.8351 18.0618H2.16501C1.7658 18.0618 1.44336 18.3843 1.44336 18.7835V23.8351C1.44336 24.2343 1.7658 24.5567 2.16501 24.5567H23.83C24.2292 24.5567 24.5516 24.2343 24.5516 23.8351V18.7835C24.5567 18.3843 24.2292 18.0618 23.8351 18.0618Z" fill="#759FCB"/>
<path d="M23.8351 18.0618H2.16501C1.7658 18.0618 1.44336 18.3843 1.44336 18.7835V19.2288H5.67604C6.07525 19.2288 6.39769 19.5512 6.39769 19.9504C6.39769 20.3496 6.07525 20.6721 5.67604 20.6721H1.44336V21.9209H3.50596C3.90517 21.9209 4.22761 22.2433 4.22761 22.6425C4.22761 23.0418 3.90517 23.3642 3.50596 23.3642H1.44336V23.8299C1.44336 24.2292 1.7658 24.5516 2.16501 24.5516H23.83C24.2292 24.5516 24.5516 24.2292 24.5516 23.8299V18.7835C24.5567 18.3843 24.2292 18.0618 23.8351 18.0618Z" fill="#D3DFE8"/>
<path d="M11.2548 1.4433H4.44263V7.78976H11.2548V1.4433Z" fill="#D3DFE8"/>
<path d="M2.16501 16.6185H23.83C24.2292 16.6185 24.5516 16.2961 24.5516 15.8969V5.81931C24.5516 5.4201 24.2292 5.09766 23.83 5.09766H12.6981V7.78978H12.7749C13.1741 7.78978 13.4965 8.11222 13.4965 8.51144C13.4965 8.91065 13.1741 9.23309 12.7749 9.23309H2.92249C2.52328 9.23309 2.20084 8.91065 2.20084 8.51144C2.20084 8.11222 2.52328 7.78978 2.92249 7.78978H2.99926V5.09766H2.16501C1.7658 5.09766 1.44336 5.4201 1.44336 5.81931V15.8917C1.44336 16.291 1.77092 16.6185 2.16501 16.6185Z" fill="#759FCB"/>
<path d="M22.013 9.34566H15.252C15.1957 9.34566 15.1497 9.2996 15.1497 9.2433V6.87873C15.1497 6.82243 15.1957 6.77637 15.252 6.77637H22.0079C22.0642 6.77637 22.1103 6.82243 22.1103 6.87873V9.2433C22.1154 9.2996 22.0693 9.34566 22.013 9.34566Z" fill="#D3DFE8"/>
<path d="M26 5.81929C26 4.62677 25.0276 3.65433 23.835 3.65433H12.698V1.44331C12.698 0.644882 12.048 0 11.2547 0H4.44252C3.64921 0 2.99921 0.65 2.99921 1.44331V3.65433H2.16496C0.972441 3.65433 0 4.62677 0 5.81929V15.8917C0 16.4445 0.209843 16.9512 0.557874 17.335C0.209843 17.724 0 18.2307 0 18.7835V23.835C0 25.0276 0.972441 26 2.16496 26H23.8299C25.0224 26 25.9949 25.0276 25.9949 23.835V18.7835C25.9949 18.2307 25.785 17.724 25.437 17.3402C25.7799 16.9563 25.9949 16.4496 25.9949 15.8969V5.81929H26ZM4.44252 1.44331H11.2547V7.78976H4.44252V1.44331ZM24.5567 23.835C24.5567 24.2343 24.2343 24.5567 23.835 24.5567H2.16496C1.76575 24.5567 1.44331 24.2343 1.44331 23.835V18.7835C1.44331 18.3843 1.76575 18.0618 2.16496 18.0618H23.8299C24.2291 18.0618 24.5516 18.3843 24.5516 18.7835V23.835H24.5567ZM24.5567 15.8969C24.5567 16.2961 24.2343 16.6185 23.835 16.6185H2.16496C1.76575 16.6185 1.44331 16.2961 1.44331 15.8969V5.81929C1.44331 5.42008 1.76575 5.09764 2.16496 5.09764H2.99921V7.78976H2.92244C2.52323 7.78976 2.20079 8.11221 2.20079 8.51142C2.20079 8.91063 2.52323 9.23307 2.92244 9.23307H12.7799C13.1791 9.23307 13.5016 8.91063 13.5016 8.51142C13.5016 8.11221 13.1791 7.78976 12.7799 7.78976H12.7031V5.09764H23.835C24.2343 5.09764 24.5567 5.42008 24.5567 5.81929V15.8969Z" fill="#21303D"/>
<path d="M9.4634 2.65631H6.23899C5.83977 2.65631 5.51733 2.97875 5.51733 3.37796C5.51733 3.77718 5.83977 4.09962 6.23899 4.09962H9.4634C9.86261 4.09962 10.1851 3.77718 10.1851 3.37796C10.1851 2.97875 9.85749 2.65631 9.4634 2.65631Z" fill="#21303D"/>
<path d="M9.4634 5.13348H6.23899C5.83977 5.13348 5.51733 5.45592 5.51733 5.85514C5.51733 6.25435 5.83977 6.57679 6.23899 6.57679H9.4634C9.86261 6.57679 10.1851 6.25435 10.1851 5.85514C10.1851 5.45592 9.85749 5.13348 9.4634 5.13348Z" fill="#21303D"/>
<path d="M4.95442 11.4236H3.88474C3.48553 11.4236 3.16309 11.7461 3.16309 12.1453C3.16309 12.5445 3.48553 12.867 3.88474 12.867H4.95442C5.35364 12.867 5.67608 12.5445 5.67608 12.1453C5.67608 11.7461 5.35364 11.4236 4.95442 11.4236Z" fill="#21303D"/>
<path d="M9.24324 11.4236H8.17356C7.77434 11.4236 7.4519 11.7461 7.4519 12.1453C7.4519 12.5445 7.77434 12.867 8.17356 12.867H9.24324C9.64246 12.867 9.9649 12.5445 9.9649 12.1453C9.9649 11.7461 9.64246 11.4236 9.24324 11.4236Z" fill="#21303D"/>
<path d="M13.5323 11.4236H12.4626C12.0634 11.4236 11.741 11.7461 11.741 12.1453C11.741 12.5445 12.0634 12.867 12.4626 12.867H13.5323C13.9315 12.867 14.254 12.5445 14.254 12.1453C14.254 11.7461 13.9315 11.4236 13.5323 11.4236Z" fill="#21303D"/>
<path d="M17.8265 11.4236H16.7568C16.3576 11.4236 16.0352 11.7461 16.0352 12.1453C16.0352 12.5445 16.3576 12.867 16.7568 12.867H17.8265C18.2257 12.867 18.5481 12.5445 18.5481 12.1453C18.5481 11.7461 18.2257 11.4236 17.8265 11.4236Z" fill="#21303D"/>
<path d="M22.1153 11.4236H21.0456C20.6464 11.4236 20.324 11.7461 20.324 12.1453C20.324 12.5445 20.6464 12.867 21.0456 12.867H22.1153C22.5145 12.867 22.837 12.5445 22.837 12.1453C22.837 11.7461 22.5145 11.4236 22.1153 11.4236Z" fill="#21303D"/>
<path d="M4.95442 14.085H3.88474C3.48553 14.085 3.16309 14.4075 3.16309 14.8067C3.16309 15.2059 3.48553 15.5283 3.88474 15.5283H4.95442C5.35364 15.5283 5.67608 15.2059 5.67608 14.8067C5.67608 14.4075 5.35364 14.085 4.95442 14.085Z" fill="#21303D"/>
<path d="M9.24324 14.085H8.17356C7.77434 14.085 7.4519 14.4075 7.4519 14.8067C7.4519 15.2059 7.77434 15.5283 8.17356 15.5283H9.24324C9.64246 15.5283 9.9649 15.2059 9.9649 14.8067C9.9649 14.4075 9.64246 14.085 9.24324 14.085Z" fill="#21303D"/>
<path d="M13.5323 14.085H12.4626C12.0634 14.085 11.741 14.4075 11.741 14.8067C11.741 15.2059 12.0634 15.5283 12.4626 15.5283H13.5323C13.9315 15.5283 14.254 15.2059 14.254 14.8067C14.254 14.4075 13.9315 14.085 13.5323 14.085Z" fill="#21303D"/>
<path d="M17.8265 14.085H16.7568C16.3576 14.085 16.0352 14.4075 16.0352 14.8067C16.0352 15.2059 16.3576 15.5283 16.7568 15.5283H17.8265C18.2257 15.5283 18.5481 15.2059 18.5481 14.8067C18.5481 14.4075 18.2257 14.085 17.8265 14.085Z" fill="#21303D"/>
<path d="M22.1153 14.085H21.0456C20.6464 14.085 20.324 14.4075 20.324 14.8067C20.324 15.2059 20.6464 15.5283 21.0456 15.5283H22.1153C22.5145 15.5283 22.837 15.2059 22.837 14.8067C22.837 14.4075 22.5145 14.085 22.1153 14.085Z" fill="#21303D"/>
<path d="M14.1209 20.9484H11.8791C11.4799 20.9484 11.1575 21.2709 11.1575 21.6701C11.1575 22.0693 11.4799 22.3917 11.8791 22.3917H14.1209C14.5201 22.3917 14.8425 22.0693 14.8425 21.6701C14.8425 21.2709 14.5201 20.9484 14.1209 20.9484Z" fill="#21303D"/>
</g>
<defs>
<clipPath id="clip0_49_531">
<rect width="26" height="26" fill="white"/>
</clipPath>
</defs>
</svg>
