<?xml version="1.0" encoding="utf-8"?><!-- Uploaded to: SVG Repo, www.svgrepo.com, Generator: SVG Repo Mixer Tools -->
<svg width="24" height="24" viewBox="0 0 24 24" fill="none" xmlns="http://www.w3.org/2000/svg">
<g clip-path="url(#clip0_49_380)">
<path d="M23.3527 10.471H0.833984L11.8246 0.555298L23.3527 10.471Z" fill="#B8C9D6"/>
<path d="M23.3527 10.8416H0.833989C0.685717 10.8416 0.537446 10.749 0.481844 10.6007C0.426242 10.4524 0.46331 10.3042 0.574514 10.193L11.5651 0.277296C11.6949 0.147558 11.9173 0.147558 12.047 0.277296L23.5937 10.193C23.7049 10.2856 23.7605 10.4524 23.7049 10.6007C23.6493 10.749 23.501 10.8416 23.3527 10.8416ZM1.79775 10.1003H22.3519L11.8246 1.05572L1.79775 10.1003Z" fill="#21303D"/>
<path d="M10.175 5.30001C10.175 5.53612 10.2215 5.76992 10.3118 5.98806C10.4022 6.2062 10.5346 6.40441 10.7015 6.57137C10.8685 6.73833 11.0667 6.87078 11.2848 6.96114C11.5029 7.0515 11.7367 7.098 11.9728 7.098C12.2089 7.098 12.4427 7.0515 12.6609 6.96114C12.879 6.87078 13.0772 6.73833 13.2441 6.57137C13.4111 6.40441 13.5435 6.2062 13.6338 5.98806C13.7242 5.76992 13.7707 5.53612 13.7706 5.30001C13.7707 5.0639 13.7242 4.8301 13.6338 4.61196C13.5435 4.39382 13.4111 4.19561 13.2441 4.02865C13.0772 3.86169 12.879 3.72924 12.6609 3.63888C12.4427 3.54852 12.2089 3.50201 11.9728 3.50201C11.7367 3.50201 11.5029 3.54852 11.2848 3.63888C11.0667 3.72924 10.8685 3.86169 10.7015 4.02865C10.5346 4.19561 10.4022 4.39382 10.3118 4.61196C10.2215 4.8301 10.175 5.0639 10.175 5.30001Z" fill="#5C7FA3"/>
<path d="M11.9729 7.44992C10.7867 7.44992 9.80444 6.48615 9.80444 5.28145C9.80444 4.07674 10.7682 3.11298 11.9729 3.11298C13.1591 3.11298 14.1414 4.07674 14.1414 5.28145C14.1414 6.48615 13.1591 7.44992 11.9729 7.44992ZM11.9729 3.87287C11.1945 3.87287 10.5458 4.50302 10.5458 5.29998C10.5458 6.09694 11.176 6.72709 11.9729 6.72709C12.7513 6.72709 13.4 6.09694 13.4 5.29998C13.4 4.50302 12.7513 3.87287 11.9729 3.87287Z" fill="#21303D"/>
<path d="M0.889556 10.4709H23.0932C23.3898 10.4709 23.6122 10.7119 23.6122 10.9899V11.4718C23.6122 11.7683 23.3712 11.9907 23.0932 11.9907H0.889556C0.593013 11.9907 0.370605 11.7498 0.370605 11.4718V10.9899C0.370605 10.7119 0.611547 10.4709 0.889556 10.4709Z" fill="#5C7FA3"/>
<path d="M23.1118 12.38H0.889629C0.389213 12.38 0 11.9722 0 11.4903V11.0085C0 10.508 0.407747 10.1188 0.889629 10.1188H23.0933C23.5937 10.1188 23.9829 10.5266 23.9829 11.0085V11.4903C24.0014 11.9722 23.5937 12.38 23.1118 12.38ZM0.889629 10.8417C0.796959 10.8417 0.741357 10.9158 0.741357 10.9899V11.4718C0.741357 11.5645 0.815493 11.6201 0.889629 11.6201H23.0933C23.186 11.6201 23.2416 11.5459 23.2416 11.4718V10.9899C23.2416 10.8973 23.1674 10.8417 23.0933 10.8417H0.889629Z" fill="#21303D"/>
<path d="M3.65112 11.9907H6.69069V12.9174C6.69069 13.214 6.44975 13.4364 6.17174 13.4364H4.18861C3.89206 13.4364 3.66966 13.1954 3.66966 12.9174V11.9907H3.65112Z" fill="#5C7FA3"/>
<path d="M6.17183 13.8256H4.1887C3.68828 13.8256 3.29907 13.4179 3.29907 12.936V12.0093C3.29907 11.8054 3.46588 11.6386 3.66975 11.6386H6.70932C6.91319 11.6386 7.08 11.8054 7.08 12.0093V12.936C7.06146 13.4179 6.67225 13.8256 6.17183 13.8256ZM4.0219 12.3614V12.9175C4.0219 13.0101 4.09603 13.0657 4.17017 13.0657H6.17183C6.2645 13.0657 6.3201 12.9916 6.3201 12.9175V12.3614H4.0219Z" fill="#21303D"/>
<path d="M4.18861 19.0336H6.19027C6.48682 19.0336 6.70922 19.2746 6.70922 19.5526V20.4793H3.65112V19.5526C3.65112 19.256 3.89206 19.0336 4.18861 19.0336Z" fill="#5C7FA3"/>
<path d="M6.69076 20.85H3.6512C3.44732 20.85 3.28052 20.6832 3.28052 20.4793V19.5526C3.28052 19.0522 3.68826 18.663 4.17015 18.663H6.17181C6.67223 18.663 7.06144 19.0707 7.06144 19.5526V20.4793C7.06144 20.6832 6.91317 20.85 6.69076 20.85ZM4.02187 20.1086H6.32008V19.5526C6.32008 19.4599 6.24595 19.4043 6.17181 19.4043H4.18868C4.09601 19.4043 4.04041 19.4785 4.04041 19.5526V20.1086H4.02187Z" fill="#21303D"/>
<path d="M4.42969 13.4549H5.9124V19.0336H4.42969V13.4549Z" fill="#B8C9D6"/>
<path d="M5.91223 19.4043H4.42952C4.22564 19.4043 4.05884 19.2375 4.05884 19.0336V13.4549C4.05884 13.251 4.22564 13.0842 4.42952 13.0842H5.91223C6.1161 13.0842 6.28291 13.251 6.28291 13.4549V19.0336C6.28291 19.2375 6.1161 19.4043 5.91223 19.4043ZM4.8002 18.6629H5.54155V13.8256H4.8002V18.6629Z" fill="#21303D"/>
<path d="M8.0437 11.9907H11.0833V12.9174C11.0833 13.214 10.8423 13.4364 10.5643 13.4364H8.56265C8.26611 13.4364 8.0437 13.1954 8.0437 12.9174V11.9907Z" fill="#5C7FA3"/>
<path d="M10.5644 13.8256H8.56272C8.06231 13.8256 7.6731 13.4179 7.6731 12.936V12.0464V12.0093C7.6731 11.8054 7.8399 11.6386 8.04377 11.6386H11.0833C11.2872 11.6386 11.454 11.8054 11.454 12.0093V12.936C11.454 13.4179 11.0463 13.8256 10.5644 13.8256ZM8.41445 12.3614V12.9175C8.41445 13.0101 8.48859 13.0657 8.56272 13.0657H10.5644C10.6571 13.0657 10.7127 12.9916 10.7127 12.9175V12.3614H8.41445Z" fill="#21303D"/>
<path d="M8.56265 19.0336H10.5458C10.8423 19.0336 11.0647 19.2746 11.0647 19.5526V20.4793H8.0437V19.5526C8.0437 19.256 8.26611 19.0336 8.56265 19.0336Z" fill="#5C7FA3"/>
<path d="M11.0833 20.85H8.04377C7.8399 20.85 7.6731 20.6832 7.6731 20.4793V19.5526C7.6731 19.0522 8.08084 18.663 8.56272 18.663H10.5644C11.0648 18.663 11.454 19.0707 11.454 19.5526V20.4793C11.454 20.6832 11.2872 20.85 11.0833 20.85ZM8.41445 20.1086H10.7127V19.5526C10.7127 19.4599 10.6385 19.4043 10.5644 19.4043H8.56272C8.47006 19.4043 8.41445 19.4785 8.41445 19.5526V20.1086Z" fill="#21303D"/>
<path d="M8.82227 13.4549H10.305V19.0336H8.82227V13.4549Z" fill="#B8C9D6"/>
<path d="M10.3048 19.4043H8.82209C8.61822 19.4043 8.45142 19.2375 8.45142 19.0336V13.4549C8.45142 13.251 8.61822 13.0842 8.82209 13.0842H10.3048C10.5087 13.0842 10.6755 13.251 10.6755 13.4549V19.0336C10.6755 19.2375 10.5087 19.4043 10.3048 19.4043ZM9.19277 18.6629H9.93413V13.8256H9.19277V18.6629Z" fill="#21303D"/>
<path d="M12.6216 11.9907H15.6611V12.9174C15.6611 13.214 15.4202 13.4364 15.1422 13.4364H13.1405C12.844 13.4364 12.6216 13.1954 12.6216 12.9174V11.9907Z" fill="#5C7FA3"/>
<path d="M15.1423 13.8256H13.1592C12.6587 13.8256 12.2695 13.4179 12.2695 12.936V12.0464V12.0093C12.2695 11.8054 12.4363 11.6386 12.6402 11.6386H15.6798C15.8836 11.6386 16.0505 11.8054 16.0505 12.0093V12.936C16.0319 13.4179 15.6427 13.8256 15.1423 13.8256ZM12.9924 12.3614V12.9175C12.9924 13.0101 13.0665 13.0657 13.1406 13.0657H15.1423C15.235 13.0657 15.2906 12.9916 15.2906 12.9175V12.3614H12.9924Z" fill="#21303D"/>
<path d="M13.1405 19.0336H15.1237C15.4202 19.0336 15.6426 19.2746 15.6426 19.5526V20.4793H12.6216V19.5526C12.6216 19.256 12.8625 19.0336 13.1405 19.0336Z" fill="#5C7FA3"/>
<path d="M15.6612 20.85H12.6217C12.4178 20.85 12.251 20.6832 12.251 20.4793V19.5526C12.251 19.0522 12.6587 18.663 13.1406 18.663H15.1423C15.6427 18.663 16.0319 19.0707 16.0319 19.5526V20.4793C16.0319 20.6832 15.8651 20.85 15.6612 20.85ZM12.9923 20.1086H15.2905V19.5526C15.2905 19.4599 15.2164 19.4043 15.1423 19.4043H13.1406C13.0479 19.4043 12.9923 19.4785 12.9923 19.5526V20.1086Z" fill="#21303D"/>
<path d="M13.4001 13.4549H14.8829V19.0336H13.4001V13.4549Z" fill="#B8C9D6"/>
<path d="M14.8827 19.4043H13.4C13.1961 19.4043 13.0293 19.2375 13.0293 19.0336V13.4549C13.0293 13.251 13.1961 13.0842 13.4 13.0842H14.8827C15.0866 13.0842 15.2534 13.251 15.2534 13.4549V19.0336C15.2534 19.2375 15.0866 19.4043 14.8827 19.4043ZM13.7707 18.6629H14.512V13.8256H13.7707V18.6629Z" fill="#21303D"/>
<path d="M17.0327 11.9907H20.0723V12.9174C20.0723 13.214 19.8313 13.4364 19.5533 13.4364H17.5517C17.2551 13.4364 17.0327 13.1954 17.0327 12.9174V11.9907Z" fill="#5C7FA3"/>
<path d="M19.5534 13.8256H17.5517C17.0513 13.8256 16.6621 13.4179 16.6621 12.936V12.0464V12.0093C16.6621 11.8054 16.8289 11.6386 17.0328 11.6386H20.0724C20.2762 11.6386 20.443 11.8054 20.443 12.0093V12.936C20.443 13.4179 20.0353 13.8256 19.5534 13.8256ZM17.4035 12.3614V12.9175C17.4035 13.0101 17.4776 13.0657 17.5517 13.0657H19.5534C19.6461 13.0657 19.7017 12.9916 19.7017 12.9175V12.3614H17.4035Z" fill="#21303D"/>
<path d="M17.5517 19.0336H19.5533C19.8499 19.0336 20.0723 19.2746 20.0723 19.5526V20.4793H17.0327V19.5526C17.0327 19.256 17.2551 19.0336 17.5517 19.0336Z" fill="#5C7FA3"/>
<path d="M20.0724 20.85H17.0328C16.8289 20.85 16.6621 20.6832 16.6621 20.4793V19.5526C16.6621 19.0522 17.0699 18.663 17.5517 18.663H19.5534C20.0538 18.663 20.443 19.0707 20.443 19.5526V20.4793C20.443 20.6832 20.2762 20.85 20.0724 20.85ZM17.4035 20.1086H19.7017V19.5526C19.7017 19.4599 19.6275 19.4043 19.5534 19.4043H17.5517C17.4591 19.4043 17.4035 19.4785 17.4035 19.5526V20.1086Z" fill="#21303D"/>
<path d="M17.811 13.4549H19.2937V19.0336H17.811V13.4549Z" fill="#B8C9D6"/>
<path d="M19.2938 19.4043H17.8111C17.6072 19.4043 17.4404 19.2375 17.4404 19.0336V13.4549C17.4404 13.251 17.6072 13.0842 17.8111 13.0842H19.2938C19.4977 13.0842 19.6645 13.251 19.6645 13.4549V19.0336C19.6645 19.2375 19.4977 19.4043 19.2938 19.4043ZM18.1818 18.6629H18.9231V13.8256H18.1818V18.6629Z" fill="#21303D"/>
<path d="M2.48355 20.4792H21.4438C21.7403 20.4792 21.9627 20.7202 21.9627 20.9982V22.4438C21.9627 22.7404 21.7218 22.9628 21.4438 22.9628H2.48355C2.18701 22.9628 1.9646 22.7219 1.9646 22.4438V20.9982C1.9646 20.7202 2.18701 20.4792 2.48355 20.4792Z" fill="#B8C9D6"/>
<path d="M21.4624 23.3335H2.48362C1.98321 23.3335 1.59399 22.9257 1.59399 22.4439V20.9982C1.59399 20.4978 2.00174 20.1086 2.48362 20.1086H21.4438C21.9443 20.1086 22.3335 20.5163 22.3335 20.9982V22.4439C22.352 22.9443 21.9443 23.3335 21.4624 23.3335ZM2.48362 20.8499C2.39095 20.8499 2.33535 20.9241 2.33535 20.9982V22.4439C2.33535 22.5365 2.40949 22.5921 2.48362 22.5921H21.4438C21.5365 22.5921 21.5921 22.518 21.5921 22.4439V20.9982C21.5921 20.9055 21.518 20.8499 21.4438 20.8499H2.48362Z" fill="#21303D"/>
<path d="M0.889556 21.9249H23.0932C23.3898 21.9249 23.6122 22.1659 23.6122 22.4439V22.9258C23.6122 23.2223 23.3712 23.4447 23.0932 23.4447H0.889556C0.593013 23.4447 0.370605 23.2038 0.370605 22.9258V22.4439C0.370605 22.1659 0.611547 21.9249 0.889556 21.9249Z" fill="#5C7FA3"/>
<path d="M23.1118 23.8154H0.889629C0.389213 23.8154 0 23.4077 0 22.9258V22.4439C0 21.9435 0.407747 21.5543 0.889629 21.5543H23.0933C23.5937 21.5543 23.9829 21.962 23.9829 22.4439V22.9258C24.0014 23.4262 23.5937 23.8154 23.1118 23.8154ZM0.889629 22.2956C0.796959 22.2956 0.741357 22.3698 0.741357 22.4439V22.9258C0.741357 23.0184 0.815493 23.074 0.889629 23.074H23.0933C23.186 23.074 23.2416 22.9999 23.2416 22.9258V22.4439C23.2416 22.3512 23.1674 22.2956 23.0933 22.2956H0.889629Z" fill="#21303D"/>
</g>
</svg>
