<?xml version="1.0" encoding="utf-8"?><!-- Uploaded to: SVG Repo, www.svgrepo.com, Generator: SVG Repo Mixer Tools -->
<svg width="24" height="24" viewBox="0 0 24 24" fill="none" xmlns="http://www.w3.org/2000/svg">
<g clip-path="url(#clip0_141_60)">
<path fill-rule="evenodd" clip-rule="evenodd" d="M21.6 20.0103C21.6 20.64 21.0084 21.1428 20.346 21.1428H16.746C16.0848 21.1428 15.6 20.64 15.6 20.0103V16.5817C15.6 15.952 16.0848 15.4286 16.746 15.4286H20.346C21.0084 15.4286 21.6 15.952 21.6 16.5817V20.0103ZM20.346 13.1428H16.746C14.7576 13.1428 13.2 14.688 13.2 16.5817V20.0103C13.2 21.904 14.7576 23.4286 16.746 23.4286H20.346C22.3344 23.4286 24 21.904 24 20.0103V16.5817C24 14.688 22.3344 13.1428 20.346 13.1428ZM8.4 20.0103C8.4 20.64 7.8084 21.1428 7.146 21.1428H3.546C2.8848 21.1428 2.4 20.64 2.4 20.0103V16.5817C2.4 15.952 2.8848 15.4286 3.546 15.4286H7.146C7.8084 15.4286 8.4 15.952 8.4 16.5817V20.0103ZM7.146 13.1428H3.546C1.5576 13.1428 0 14.688 0 16.5817V20.0103C0 21.904 1.5576 23.4286 3.546 23.4286H7.146C9.1344 23.4286 10.8 21.904 10.8 20.0103V16.5817C10.8 14.688 9.1344 13.1428 7.146 13.1428ZM21.6 7.43884C21.6 8.06855 21.0084 8.57141 20.346 8.57141H16.746C16.0848 8.57141 15.6 8.06855 15.6 7.43884V4.01027C15.6 3.38055 16.0848 2.85713 16.746 2.85713H20.346C21.0084 2.85713 21.6 3.38055 21.6 4.01027V7.43884ZM20.346 0.571411H16.746C14.7576 0.571411 13.2 2.11655 13.2 4.01027V7.43884C13.2 9.33255 14.7576 10.8571 16.746 10.8571H20.346C22.3344 10.8571 24 9.33255 24 7.43884V4.01027C24 2.11655 22.3344 0.571411 20.346 0.571411ZM8.4 7.43884C8.4 8.06855 7.8084 8.57141 7.146 8.57141H3.546C2.8848 8.57141 2.4 8.06855 2.4 7.43884V4.01027C2.4 3.38055 2.8848 2.85713 3.546 2.85713H7.146C7.8084 2.85713 8.4 3.38055 8.4 4.01027V7.43884ZM7.146 0.571411H3.546C1.5576 0.571411 0 2.11655 0 4.01027V7.43884C0 9.33255 1.5576 10.8571 3.546 10.8571H7.146C9.1344 10.8571 10.8 9.33255 10.8 7.43884V4.01027C10.8 2.11655 9.1344 0.571411 7.146 0.571411Z" fill="#21303D"/>
</g>
</svg>
