<?xml version="1.0" encoding="utf-8"?><!-- Uploaded to: SVG Repo, www.svgrepo.com, Generator: SVG Repo Mixer Tools -->
<svg width="24" height="24" viewBox="0 0 24 24" fill="none" xmlns="http://www.w3.org/2000/svg">
<g clip-path="url(#clip0_49_427)">
<path d="M23.5832 3.91985V2.21838H0.47876V14.8452H23.5832V5.62137" fill="#759FCB"/>
<path d="M23.5831 14.8455H0.47876V21.7819H23.5831V14.8455Z" fill="#A3D0FF"/>
<path d="M9.21005 4.00939H4.41938C4.41938 5.19631 3.45694 6.15874 2.27002 6.15874V10.9047C3.45694 10.9047 4.41938 11.8671 4.41938 13.054H9.21005H14.8521H19.6428C19.6428 11.8671 20.6052 10.9047 21.7921 10.9047V6.1587C20.6052 6.1587 19.6428 5.19626 19.6428 4.00934H14.8521" fill="#A3D0FF"/>
<path d="M14.852 2.21857H9.20996V21.7819H14.852V2.21857Z" fill="#556080"/>
<path d="M14.852 14.8455H9.20996V21.782H14.852V14.8455Z" fill="#3C4660"/>
<path d="M23.5522 4.36768C23.7996 4.36768 24 4.16719 24 3.91988V2.21837C24 1.97105 23.7996 1.77057 23.5522 1.77057H0.447797C0.200484 1.77062 0 1.9711 0 2.21837V14.8452V21.7816C0 22.029 0.200484 22.2294 0.447797 22.2294H23.5522C23.7996 22.2294 24 22.029 24 21.7816V14.8452V5.62135C24 5.37404 23.7996 5.17355 23.5522 5.17355C23.3049 5.17355 23.1045 5.37404 23.1045 5.62135V14.3974H15.2686V13.5018H19.6117C19.859 13.5018 20.0595 13.3013 20.0595 13.054C20.0595 12.1157 20.8228 11.3524 21.761 11.3524C22.0084 11.3524 22.2088 11.1519 22.2088 10.9046V6.15873C22.2088 5.91141 22.0084 5.71093 21.761 5.71093C20.8228 5.71093 20.0595 4.94762 20.0595 4.00937C20.0595 3.76205 19.859 3.56157 19.6117 3.56157H15.2686V2.66616H23.1044V3.91988C23.1045 4.16719 23.3048 4.36768 23.5522 4.36768ZM0.895547 2.66616H8.73131V3.56162H4.38825C4.14094 3.56162 3.94045 3.7621 3.94045 4.00941C3.94045 4.94766 3.17714 5.71098 2.23889 5.71098C1.99158 5.71098 1.79109 5.91146 1.79109 6.15877V10.9047C1.79109 11.152 1.99158 11.3525 2.23889 11.3525C3.17714 11.3525 3.94045 12.1158 3.94045 13.054C3.94045 13.3014 4.14094 13.5018 4.38825 13.5018H8.73127V14.3975H0.895547V2.66616ZM0.895547 18.7611H2.62687C2.87419 18.7611 3.07467 18.5606 3.07467 18.3133C3.07467 18.066 2.87419 17.8655 2.62687 17.8655H0.895547V17.0273H8.73131V17.8655H4.11947C3.87216 17.8655 3.67167 18.066 3.67167 18.3133C3.67167 18.5606 3.87216 18.7611 4.11947 18.7611H8.73131V19.5999H0.895547V18.7611ZM8.73136 16.1318H0.895547V15.293H8.73131L8.73136 16.1318ZM0.895547 20.4955H8.73131V21.3339H0.895547V20.4955ZM9.62691 21.3339V15.293H14.3731V21.3339H9.62691ZM23.1045 17.8656H15.2686V17.0273H23.1044L23.1045 17.8656ZM15.2686 21.3339V18.7611H23.1044V19.5999H16.2985C16.0511 19.5999 15.8507 19.8004 15.8507 20.0477C15.8507 20.2951 16.0511 20.4955 16.2985 20.4955H23.1044V21.3339H15.2686ZM23.1045 15.293V16.1318H15.2686V15.293H23.1045ZM19.2025 4.45716C19.3899 5.53102 20.2394 6.3804 21.3133 6.5679V10.4955C20.2394 10.683 19.3899 11.5324 19.2025 12.6062H15.2686V4.45716H19.2025ZM14.3731 14.3974H9.62691V11.1078C9.62691 10.8605 9.42642 10.66 9.17911 10.66C8.9318 10.66 8.73131 10.8605 8.73131 11.1078V12.6062H4.79747C4.61002 11.5324 3.76059 10.683 2.68673 10.4955V6.5679C3.76059 6.38044 4.60997 5.53102 4.79747 4.45716H8.73131V9.61515C8.73131 9.86246 8.9318 10.0629 9.17911 10.0629C9.42642 10.0629 9.62691 9.86246 9.62691 9.61515V2.66616H14.3731V14.3974Z" fill="#21303D"/>
</g>
</svg>
