<?xml version="1.0" encoding="utf-8"?><!-- Uploaded to: SVG Repo, www.svgrepo.com, Generator: SVG Repo Mixer Tools -->
<svg width="26" height="26" viewBox="0 0 26 26" fill="none" xmlns="http://www.w3.org/2000/svg">
<g clip-path="url(#clip0_49_460)">
<path d="M13.6102 22.8808C13.6102 22.9127 13.6102 22.9446 13.6102 22.9775C13.6102 23.4905 13.4064 23.9826 13.0436 24.3453C12.6809 24.7081 12.1889 24.9119 11.6758 24.9119C11.1628 24.9119 10.6708 24.7081 10.308 24.3453C9.94526 23.9826 9.74146 23.4905 9.74146 22.9775C9.74146 22.9466 9.74146 22.9156 9.74146 22.8808C9.74146 22.846 9.74146 22.8015 9.74146 22.7618C9.74146 22.2488 9.94526 21.7568 10.308 21.394C10.6708 21.0313 11.1628 20.8275 11.6758 20.8275C12.1889 20.8275 12.6809 21.0313 13.0436 21.394C13.4064 21.7568 13.6102 22.2488 13.6102 22.7618C13.6102 22.8012 13.6102 22.8408 13.6102 22.8808Z" fill="#D3DFE8"/>
<path d="M21.2201 22.8808C21.2201 22.9127 21.2201 22.9446 21.2201 22.9775C21.2201 23.4905 21.0163 23.9826 20.6535 24.3453C20.2907 24.7081 19.7987 24.9119 19.2857 24.9119C18.7727 24.9119 18.2807 24.7081 17.9179 24.3453C17.5551 23.9826 17.3513 23.4905 17.3513 22.9775C17.3513 22.9466 17.3513 22.9156 17.3513 22.8808C17.3513 22.846 17.3513 22.8015 17.3513 22.7618C17.3513 22.2488 17.5551 21.7568 17.9179 21.394C18.2807 21.0313 18.7727 20.8275 19.2857 20.8275C19.7987 20.8275 20.2907 21.0313 20.6535 21.394C21.0163 21.7568 21.2201 22.2488 21.2201 22.7618C21.2201 22.8012 21.2201 22.8408 21.2201 22.8808Z" fill="#D3DFE8"/>
<path d="M17.4434 22.2125C17.4637 21.7822 17.6279 21.3711 17.9095 21.0451H20.8479C21.1299 21.371 21.2944 21.782 21.315 22.2125H17.4434Z" fill="#5C7FA3"/>
<path d="M9.8335 22.2125C9.85386 21.7822 10.018 21.3711 10.2997 21.0451H13.238C13.5197 21.3711 13.6838 21.7822 13.7042 22.2125H9.8335Z" fill="#5C7FA3"/>
<path d="M5.60959 14.4392C5.54854 14.4392 5.48999 14.4149 5.44682 14.3717C5.40365 14.3286 5.37939 14.27 5.37939 14.209V13.2418C5.37939 13.1807 5.40365 13.1222 5.44682 13.079C5.48999 13.0358 5.54854 13.0116 5.60959 13.0116C5.67064 13.0116 5.72919 13.0358 5.77236 13.079C5.81552 13.1222 5.83978 13.1807 5.83978 13.2418V14.209C5.83978 14.27 5.81552 14.3286 5.77236 14.3717C5.72919 14.4149 5.67064 14.4392 5.60959 14.4392Z" fill="#B8C9D6"/>
<path d="M5.60959 12.6527C5.54854 12.6527 5.48999 12.6285 5.44682 12.5853C5.40365 12.5422 5.37939 12.4836 5.37939 12.4226V11.8974C5.37939 11.8363 5.40365 11.7778 5.44682 11.7346C5.48999 11.6914 5.54854 11.6672 5.60959 11.6672C5.67064 11.6672 5.72919 11.6914 5.77236 11.7346C5.81552 11.7778 5.83978 11.8363 5.83978 11.8974V12.4226C5.83978 12.4836 5.81552 12.5422 5.77236 12.5853C5.72919 12.6285 5.67064 12.6527 5.60959 12.6527Z" fill="#B8C9D6"/>
<path d="M25.7437 6.25385L24.3268 19.8661C24.3005 20.1303 24.1772 20.3754 23.9807 20.5541C23.7842 20.7327 23.5284 20.8322 23.2629 20.8333H7.79656L3.43066 6.25385H25.7437Z" fill="#D3DFE8"/>
<path d="M11.6721 24.968C11.213 24.968 10.7642 24.8319 10.3825 24.5768C10.0007 24.3217 9.70322 23.9592 9.52753 23.5351C9.35184 23.1109 9.30587 22.6442 9.39543 22.1939C9.485 21.7436 9.70608 21.33 10.0307 21.0054C10.3553 20.6807 10.769 20.4597 11.2192 20.3701C11.6695 20.2805 12.1362 20.3265 12.5604 20.5022C12.9845 20.6779 13.3471 20.9754 13.6021 21.3571C13.8572 21.7389 13.9933 22.1877 13.9933 22.6468C13.9918 23.2619 13.7468 23.8515 13.3118 24.2864C12.8768 24.7214 12.2873 24.9665 11.6721 24.968ZM11.6721 21.0925C11.366 21.0925 11.0668 21.1832 10.8123 21.3533C10.5579 21.5233 10.3595 21.765 10.2424 22.0478C10.1253 22.3306 10.0946 22.6417 10.1543 22.9419C10.214 23.2421 10.3614 23.5178 10.5778 23.7342C10.7943 23.9507 11.07 24.098 11.3702 24.1578C11.6704 24.2175 11.9815 24.1868 12.2643 24.0697C12.5471 23.9526 12.7887 23.7542 12.9588 23.4997C13.1288 23.2452 13.2196 22.9461 13.2196 22.64C13.2183 22.2299 13.0549 21.8369 12.765 21.5468C12.4751 21.2567 12.0822 21.093 11.6721 21.0915V21.0925Z" fill="#21303D"/>
<path d="M19.2829 24.968C18.8238 24.968 18.375 24.8319 17.9933 24.5768C17.6116 24.3217 17.3141 23.9592 17.1384 23.5351C16.9627 23.1109 16.9167 22.6442 17.0063 22.1939C17.0958 21.7436 17.3169 21.33 17.6416 21.0054C17.9662 20.6807 18.3798 20.4597 18.8301 20.3701C19.2804 20.2805 19.7471 20.3265 20.1712 20.5022C20.5954 20.6779 20.9579 20.9754 21.213 21.3571C21.468 21.7389 21.6042 22.1877 21.6042 22.6468C21.6027 23.2619 21.3576 23.8515 20.9226 24.2864C20.4876 24.7214 19.8981 24.9665 19.2829 24.968ZM19.2829 21.0925C18.9769 21.0925 18.6777 21.1832 18.4232 21.3533C18.1687 21.5233 17.9703 21.765 17.8532 22.0478C17.7361 22.3306 17.7054 22.6417 17.7652 22.9419C17.8249 23.2421 17.9723 23.5178 18.1887 23.7342C18.4051 23.9507 18.6808 24.098 18.981 24.1578C19.2812 24.2175 19.5924 24.1868 19.8751 24.0697C20.1579 23.9526 20.3996 23.7542 20.5696 23.4997C20.7397 23.2452 20.8304 22.9461 20.8304 22.64C20.8292 22.2299 20.6657 21.8369 20.3758 21.5468C20.0859 21.2567 19.693 21.093 19.2829 21.0915V21.0925Z" fill="#21303D"/>
<path d="M3.24105 6.48597H0.386876C0.28427 6.48597 0.185867 6.44521 0.113313 6.37266C0.04076 6.3001 0 6.2017 0 6.0991C0 5.99649 0.04076 5.89809 0.113313 5.82553C0.185867 5.75298 0.28427 5.71222 0.386876 5.71222H3.24105C3.34366 5.71222 3.44206 5.75298 3.51462 5.82553C3.58717 5.89809 3.62793 5.99649 3.62793 6.0991C3.62793 6.2017 3.58717 6.3001 3.51462 6.37266C3.44206 6.44521 3.34366 6.48597 3.24105 6.48597Z" fill="#21303D"/>
<path d="M3.83592 8.21046H1.5756C1.47299 8.21046 1.37459 8.1697 1.30203 8.09714C1.22948 8.02459 1.18872 7.92619 1.18872 7.82358C1.18872 7.72098 1.22948 7.62257 1.30203 7.55002C1.37459 7.47747 1.47299 7.43671 1.5756 7.43671H3.83592C3.93853 7.43671 4.03693 7.47747 4.10948 7.55002C4.18204 7.62257 4.2228 7.72098 4.2228 7.82358C4.2228 7.92619 4.18204 8.02459 4.10948 8.09714C4.03693 8.1697 3.93853 8.21046 3.83592 8.21046Z" fill="#21303D"/>
<path d="M4.19179 9.93495H2.52726C2.42465 9.93495 2.32625 9.89419 2.25369 9.82163C2.18114 9.74908 2.14038 9.65068 2.14038 9.54807C2.14038 9.44546 2.18114 9.34706 2.25369 9.27451C2.32625 9.20195 2.42465 9.16119 2.52726 9.16119H4.19179C4.2944 9.16119 4.3928 9.20195 4.46535 9.27451C4.53791 9.34706 4.57867 9.44546 4.57867 9.54807C4.57867 9.65068 4.53791 9.74908 4.46535 9.82163C4.3928 9.89419 4.2944 9.93495 4.19179 9.93495Z" fill="#21303D"/>
<path opacity="0.7" d="M7.07407 12.2766C6.98852 12.2763 6.90547 12.2476 6.83792 12.1951C6.77037 12.1426 6.72213 12.0692 6.70074 11.9864L6.37383 10.7552C6.35927 10.7056 6.35479 10.6536 6.36065 10.6023C6.36651 10.5509 6.38259 10.5013 6.40795 10.4563C6.4333 10.4113 6.46742 10.3718 6.50828 10.3402C6.54914 10.3086 6.59592 10.2854 6.64586 10.2722C6.6958 10.259 6.74788 10.2559 6.79904 10.2631C6.8502 10.2703 6.8994 10.2877 6.94373 10.3142C6.98806 10.3407 7.02662 10.3759 7.05715 10.4176C7.08768 10.4592 7.10955 10.5066 7.12147 10.5569L7.44741 11.7901C7.46217 11.8472 7.46365 11.907 7.45175 11.9648C7.43985 12.0226 7.41488 12.0769 7.37876 12.1236C7.34264 12.1702 7.29631 12.208 7.24333 12.234C7.19036 12.2601 7.13213 12.2736 7.07311 12.2736L7.07407 12.2766Z" fill="#B8C9D6"/>
<path opacity="0.7" d="M6.27901 9.52777C6.19346 9.52749 6.11041 9.49886 6.04286 9.44636C5.97531 9.39386 5.92707 9.32045 5.90568 9.23761L5.72868 8.57508C5.71554 8.52574 5.71224 8.47429 5.71898 8.42367C5.72571 8.37305 5.74236 8.32425 5.76795 8.28007C5.79355 8.23588 5.8276 8.19717 5.86816 8.16614C5.90871 8.13511 5.95499 8.11237 6.00433 8.09923C6.05368 8.08608 6.10513 8.08278 6.15575 8.08952C6.20637 8.09626 6.25516 8.1129 6.29935 8.1385C6.34354 8.16409 6.38225 8.19814 6.41328 8.2387C6.44431 8.27926 6.46704 8.32553 6.48019 8.37488L6.65718 9.04127C6.67194 9.09841 6.67342 9.15818 6.66152 9.21599C6.64963 9.27379 6.62466 9.32811 6.58853 9.37479C6.55241 9.42146 6.50608 9.45925 6.45311 9.48526C6.40013 9.51127 6.3419 9.52482 6.28288 9.52486L6.27901 9.52777Z" fill="#B8C9D6"/>
<path d="M24.0744 19.3312H7.5354V20.3226H24.0744V19.3312Z" fill="#5C7FA3"/>
<path d="M23.1555 21.0964H8.68152C8.34205 21.098 8.01124 20.9893 7.73892 20.7866C7.46661 20.5839 7.26755 20.2981 7.17173 19.9725L3.05924 6.24419L2.27485 3.59312C2.2477 3.49534 2.26005 3.39081 2.30924 3.30206C2.35843 3.2133 2.44052 3.14743 2.53783 3.11863C2.63513 3.08983 2.73985 3.10042 2.82943 3.1481C2.919 3.19579 2.98625 3.27676 3.01668 3.37357L3.80011 6.0227L7.91357 19.751C7.96394 19.9159 8.06575 20.0603 8.20411 20.1631C8.34246 20.266 8.51009 20.3219 8.68248 20.3226H23.1555C23.3541 20.3231 23.5458 20.2497 23.6933 20.1167C23.8408 19.9837 23.9335 19.8006 23.9534 19.603L24.3732 15.7236C24.3787 15.6728 24.3942 15.6236 24.4188 15.5788C24.4433 15.5339 24.4764 15.4944 24.5163 15.4624C24.5967 15.3977 24.6995 15.3677 24.8022 15.3788C24.853 15.3843 24.9022 15.3998 24.947 15.4244C24.9918 15.4489 25.0314 15.482 25.0634 15.5219C25.0954 15.5617 25.1193 15.6075 25.1336 15.6565C25.1479 15.7056 25.1525 15.757 25.147 15.8078L24.7233 19.6862C24.6833 20.0738 24.5007 20.4327 24.211 20.6932C23.9213 20.9538 23.5452 21.0975 23.1555 21.0964Z" fill="#21303D"/>
<path d="M25.2089 11.468H25.1663C25.0643 11.4568 24.971 11.4056 24.9068 11.3256C24.8426 11.2456 24.8128 11.1434 24.8239 11.0414L25.2224 7.40576C25.2338 7.29417 25.2216 7.18143 25.1867 7.07484C25.1517 6.96825 25.0948 6.87018 25.0196 6.78695C24.9444 6.70373 24.8526 6.63721 24.7501 6.59169C24.6476 6.54618 24.5366 6.52268 24.4245 6.52271H6.88834C6.78573 6.52271 6.68733 6.48195 6.61478 6.4094C6.54222 6.33685 6.50146 6.23844 6.50146 6.13584C6.50146 6.03323 6.54222 5.93483 6.61478 5.86228C6.68733 5.78972 6.78573 5.74896 6.88834 5.74896H24.4245C24.6454 5.74883 24.8639 5.79516 25.0658 5.88495C25.2676 5.97475 25.4484 6.10599 25.5962 6.27017C25.7441 6.43434 25.8557 6.62778 25.924 6.83791C25.9922 7.04805 26.0155 7.27019 25.9923 7.4899L25.5938 11.1275C25.5824 11.2215 25.537 11.3081 25.466 11.3709C25.3951 11.4336 25.3036 11.4682 25.2089 11.468Z" fill="#21303D"/>
<path opacity="0.7" d="M7.53531 13.5987C7.74898 13.5987 7.92219 13.4255 7.92219 13.2118C7.92219 12.9982 7.74898 12.825 7.53531 12.825C7.32165 12.825 7.14844 12.9982 7.14844 13.2118C7.14844 13.4255 7.32165 13.5987 7.53531 13.5987Z" fill="#B8C9D6"/>
<path d="M24.8781 14.6877H24.8462C24.744 14.6793 24.6493 14.6307 24.5829 14.5526C24.5166 14.4744 24.4839 14.3731 24.4922 14.2709L24.5493 13.5667C24.5576 13.4641 24.6064 13.369 24.6848 13.3024C24.7633 13.2357 24.865 13.203 24.9676 13.2113C25.0702 13.2196 25.1653 13.2684 25.232 13.3468C25.2986 13.4253 25.3314 13.527 25.3231 13.6296L25.266 14.3337C25.2577 14.4307 25.2132 14.521 25.1413 14.5866C25.0694 14.6522 24.9755 14.6883 24.8781 14.6877Z" fill="#21303D"/>
<path d="M25.0349 12.7592H25.0029C24.9523 12.7551 24.9029 12.7411 24.8576 12.718C24.8123 12.6949 24.772 12.663 24.739 12.6243C24.7061 12.5856 24.6811 12.5408 24.6654 12.4924C24.6498 12.444 24.6439 12.393 24.648 12.3423V12.3133C24.6562 12.2107 24.7048 12.1155 24.7832 12.0488C24.8615 11.982 24.9632 11.9491 25.0658 11.9574C25.1684 11.9656 25.2636 12.0142 25.3303 12.0926C25.3971 12.1709 25.4299 12.2726 25.4217 12.3752V12.4042C25.4137 12.5012 25.3694 12.5916 25.2977 12.6573C25.226 12.7231 25.1322 12.7595 25.0349 12.7592Z" fill="#21303D"/>
<path d="M15.9297 11.2562C18.3489 11.2562 20.3101 9.29195 20.3101 6.86899C20.3101 4.44602 18.3489 2.48181 15.9297 2.48181C13.5105 2.48181 11.5493 4.44602 11.5493 6.86899C11.5493 9.29195 13.5105 11.2562 15.9297 11.2562Z" fill="#5C7FA3"/>
<path d="M15.9643 10.1594C18.3873 10.1594 20.3515 8.19515 20.3515 5.77218C20.3515 3.34921 18.3873 1.38501 15.9643 1.38501C13.5414 1.38501 11.5771 3.34921 11.5771 5.77218C11.5771 8.19515 13.5414 10.1594 15.9643 10.1594Z" fill="#B8C9D6"/>
<path opacity="0.5" d="M20.4233 5.73833C20.4224 6.37369 20.2836 7.0013 20.0164 7.57774C19.7492 8.15418 19.3599 8.6657 18.8756 9.07693C18.3913 9.48815 17.8234 9.78927 17.2112 9.95946C16.5991 10.1296 15.9573 10.1648 15.3302 10.0626C14.7031 9.96038 14.1057 9.72316 13.5793 9.36735C13.0529 9.01155 12.6101 8.54566 12.2814 8.00189C11.9528 7.45813 11.7462 6.84947 11.6759 6.218C11.6056 5.58653 11.6733 4.94733 11.8743 4.3446C12.2341 6.3757 14.0988 8.19596 16.0332 8.19596C17.9676 8.19596 19.7356 6.72873 20.1921 4.3446C20.3444 4.79354 20.4224 5.26428 20.4233 5.73833Z" fill="#B8C9D6"/>
<path d="M20.3854 5.67354C20.3854 6.83773 19.9229 7.95424 19.0997 8.77745C18.2765 9.60066 17.16 10.0631 15.9958 10.0631C14.8316 10.0631 13.7151 9.60066 12.8919 8.77745C12.0687 7.95424 11.6062 6.83773 11.6062 5.67354C11.6061 5.48241 11.6184 5.29148 11.643 5.10193C11.7789 6.16017 12.2958 7.13262 13.0969 7.83734C13.898 8.54207 14.9284 8.9308 15.9953 8.9308C17.0623 8.9308 18.0926 8.54207 18.8937 7.83734C19.6948 7.13262 20.2117 6.16017 20.3477 5.10193C20.3725 5.29146 20.3851 5.48239 20.3854 5.67354Z" fill="#B8C9D6"/>
<path d="M15.9423 10.5801C14.998 10.5801 14.075 10.3001 13.2899 9.77551C12.5049 9.25093 11.893 8.50533 11.5316 7.63298C11.1703 6.76064 11.0757 5.80074 11.2599 4.87466C11.4442 3.94859 11.8988 3.09793 12.5665 2.43027C13.2342 1.76261 14.0848 1.30792 15.0109 1.12372C15.937 0.939509 16.8969 1.03405 17.7692 1.39539C18.6416 1.75672 19.3872 2.36863 19.9117 3.15371C20.4363 3.9388 20.7163 4.86182 20.7163 5.80603C20.7148 7.07172 20.2113 8.28513 19.3163 9.1801C18.4214 10.0751 17.208 10.5785 15.9423 10.5801ZM15.9423 1.80477C15.1511 1.80477 14.3777 2.03938 13.7198 2.47894C13.062 2.9185 12.5492 3.54326 12.2465 4.27422C11.9437 5.00518 11.8645 5.8095 12.0188 6.58549C12.1732 7.36147 12.5542 8.07425 13.1136 8.6337C13.6731 9.19316 14.3859 9.57415 15.1618 9.7285C15.9378 9.88285 16.7422 9.80363 17.4731 9.50086C18.2041 9.19809 18.8288 8.68536 19.2684 8.02751C19.7079 7.36967 19.9426 6.59625 19.9426 5.80507C19.9413 4.74451 19.5194 3.72777 18.7695 2.97784C18.0196 2.22792 17.0028 1.80605 15.9423 1.80477Z" fill="#21303D"/>
<path d="M13.9709 5.32633V4.57385C13.9709 4.3269 14.0399 4.14603 14.1779 4.03126C14.3389 3.90901 14.538 3.84768 14.7399 3.85813C14.942 3.84791 15.1414 3.90844 15.3037 4.02933C15.4449 4.1441 15.5159 4.32496 15.5165 4.57192V5.32343C15.5165 5.57038 15.4459 5.75125 15.3047 5.86602C15.1426 5.98759 14.9432 6.04882 14.7408 6.03915C14.5394 6.04973 14.3407 5.98875 14.1799 5.86699C14.0412 5.7535 13.9716 5.57328 13.9709 5.32633ZM14.4797 5.32633C14.4797 5.49591 14.5671 5.58038 14.7418 5.57973C14.9165 5.57909 15.0055 5.4943 15.0087 5.32536V4.57289C15.0087 4.40331 14.9194 4.31884 14.7408 4.31948C14.5622 4.32013 14.4749 4.40492 14.4787 4.57385L14.4797 5.32633ZM14.7602 7.69304C14.7616 7.65927 14.7705 7.62623 14.7863 7.59632L16.6075 3.77592C16.6258 3.73328 16.657 3.69746 16.6967 3.67351C16.7365 3.64956 16.7827 3.6387 16.829 3.64245C16.9077 3.64274 16.9837 3.67083 17.0437 3.72176C17.0744 3.74543 17.0991 3.77595 17.1159 3.81088C17.1327 3.84581 17.1411 3.88418 17.1404 3.92294C17.1408 3.95627 17.1339 3.98929 17.1201 4.01965L15.2921 7.84005C15.2714 7.88344 15.2378 7.9194 15.1959 7.9431C15.1541 7.96679 15.106 7.97708 15.0581 7.97256C15.0185 7.97372 14.9791 7.96658 14.9425 7.95158C14.9058 7.93659 14.8727 7.91408 14.8453 7.88551C14.8189 7.86059 14.7978 7.83063 14.7832 7.7974C14.7685 7.76418 14.7607 7.72837 14.7602 7.69207V7.69304ZM16.3667 7.02761V6.27611C16.3667 6.02915 16.4357 5.84829 16.5737 5.73351C16.7346 5.61119 16.9337 5.54985 17.1356 5.56039C17.3377 5.55016 17.5371 5.6107 17.6995 5.73158C17.8407 5.84635 17.9116 6.02722 17.9122 6.27417V7.02761C17.9122 7.27457 17.8416 7.45544 17.7004 7.57021C17.5384 7.69178 17.3389 7.75301 17.1366 7.74334C16.9346 7.75466 16.7351 7.694 16.5737 7.57214C16.4363 7.45672 16.3673 7.27522 16.3667 7.02761ZM16.8754 7.02761C16.8754 7.1972 16.9628 7.28166 17.1375 7.28102C17.3123 7.28037 17.4029 7.19591 17.4093 7.02761V6.27514C17.4093 6.10556 17.32 6.02109 17.1414 6.02174C16.9628 6.02238 16.8754 6.10717 16.8793 6.27611L16.8754 7.02761Z" fill="#21303D"/>
</g>
</svg>
