<?xml version="1.0" encoding="utf-8"?><!-- Uploaded to: SVG Repo, www.svgrepo.com, Generator: SVG Repo Mixer Tools -->
<svg width="26" height="26" viewBox="0 0 26 26" fill="none" xmlns="http://www.w3.org/2000/svg">
<g clip-path="url(#clip0_49_495)">
<path d="M25.1588 9.09204H0.841457C0.601668 9.09204 0.407227 9.28648 0.407227 9.52627V11.6975C0.407227 11.9373 0.601668 12.1317 0.841457 12.1317H1.30463L2.0631 23.5085C2.1087 24.1929 2.6771 24.7246 3.36295 24.7246H22.6374C23.3232 24.7246 23.8916 24.1929 23.9372 23.5085L24.6957 12.1317H25.1589C25.3987 12.1317 25.5931 11.9373 25.5931 11.6975V9.52627C25.593 9.28643 25.3986 9.09204 25.1588 9.09204ZM6.92078 21.685C6.92078 22.1646 6.5319 22.5534 6.05232 22.5534C5.57275 22.5534 5.18386 22.1646 5.18386 21.685V15.1714C5.18386 14.6917 5.57275 14.3029 6.05232 14.3029C6.5319 14.3029 6.92078 14.6917 6.92078 15.1714V21.685ZM10.3947 21.685C10.3947 22.1646 10.0058 22.5534 9.52622 22.5534C9.04659 22.5534 8.65776 22.1646 8.65776 21.685V15.1714C8.65776 14.6917 9.04664 14.3029 9.52622 14.3029C10.0058 14.3029 10.3947 14.6917 10.3947 15.1714V21.685ZM13.8686 21.685C13.8686 22.1646 13.4797 22.5534 13.0001 22.5534C12.5205 22.5534 12.1317 22.1646 12.1317 21.685V15.1714C12.1317 14.6917 12.5205 14.3029 13.0001 14.3029C13.4797 14.3029 13.8686 14.6917 13.8686 15.1714V21.685ZM17.3425 21.685C17.3425 22.1646 16.9536 22.5534 16.474 22.5534C15.9944 22.5534 15.6055 22.1646 15.6055 21.685V15.1714C15.6055 14.6917 15.9944 14.3029 16.474 14.3029C16.9536 14.3029 17.3425 14.6917 17.3425 15.1714V21.685ZM20.8164 21.685C20.8164 22.1646 20.4275 22.5534 19.948 22.5534C19.4683 22.5534 19.0795 22.1646 19.0795 21.685V15.1714C19.0795 14.6917 19.4684 14.3029 19.948 14.3029C20.4276 14.3029 20.8164 14.6917 20.8164 15.1714V21.685Z" fill="#D3DFE8"/>
<path d="M5.70333 9.09204C5.44861 10.0211 5.83099 11.0421 6.70342 11.5459C7.03324 11.7364 7.40831 11.837 7.7882 11.837C8.56191 11.837 9.2827 11.4209 9.66934 10.7512L10.6272 9.09209H5.70338L5.70333 9.09204Z" fill="#759FCB"/>
<path d="M16.3307 10.7512C16.7173 11.4209 17.4381 11.8369 18.2118 11.8369C18.5917 11.8369 18.9668 11.7363 19.2966 11.5459C20.169 11.0422 20.5515 10.0212 20.2967 9.09204H15.3728L16.3307 10.7512Z" fill="#759FCB"/>
<path d="M7.35476 10.4177C7.77015 10.6575 8.30127 10.5152 8.54111 10.0999L12.8835 2.57865C13.1233 2.16326 12.981 1.63214 12.5656 1.3923C12.1502 1.15251 11.6191 1.2948 11.3793 1.71014L7.03692 9.23135C6.79708 9.64669 6.93942 10.1779 7.35476 10.4177Z" fill="#637FA0"/>
<path d="M18.6452 10.4177C18.2298 10.6575 17.6987 10.5152 17.4588 10.0999L13.1165 2.57865C12.8767 2.16326 13.019 1.63214 13.4343 1.3923C13.8497 1.15251 14.3808 1.2948 14.6207 1.71014L18.963 9.23135C19.2029 9.64669 19.0605 10.1779 18.6452 10.4177Z" fill="#637FA0"/>
<path d="M24.6086 13.4344L24.6954 12.1317H1.30444L2.06291 23.5085C2.10851 24.1929 2.67691 24.7246 3.36276 24.7246H4.66261L4.00946 15.2913C3.93994 14.2872 4.73573 13.4344 5.74227 13.4344H24.6086Z" fill="#759FCB"/>
<path d="M25.1587 8.68499H19.1177L14.9733 1.50666C14.803 1.21152 14.5279 1.00052 14.1988 0.912365C13.8697 0.824158 13.5259 0.869455 13.2308 1.03983C13.1464 1.08858 13.0698 1.14677 12.9999 1.21147C12.9302 1.14677 12.8535 1.08858 12.7691 1.03983C12.474 0.869455 12.1303 0.824158 11.8012 0.912365C11.472 1.00057 11.197 1.21162 11.0266 1.50666L6.88223 8.68499H0.841344C0.377406 8.68499 0 9.0624 0 9.52634V11.6975C0 12.1615 0.377406 12.5389 0.841344 12.5389H0.895578L1.65425 23.5396C1.71585 24.4324 2.46507 25.1318 3.36004 25.1318H22.64C23.5349 25.1318 24.2842 24.4324 24.3458 23.5396L25.1045 12.5389H25.1587C25.6226 12.5389 26 12.1615 26 11.6975V9.52634C26 9.0624 25.6226 8.68499 25.1587 8.68499ZM13.638 1.74482C13.7091 1.70379 13.7879 1.68277 13.8679 1.68277C13.908 1.68277 13.9483 1.68805 13.9881 1.69866C14.1071 1.7306 14.2066 1.80688 14.2683 1.91367L18.6106 9.43483C18.7378 9.65522 18.6621 9.93792 18.4418 10.0651C18.3351 10.1267 18.2107 10.1431 18.0917 10.1112C17.9727 10.0793 17.8732 10.003 17.8115 9.89623L13.4692 2.37502C13.4076 2.26833 13.3912 2.14401 13.4231 2.02493C13.4548 1.90595 13.5312 1.80642 13.638 1.74482ZM13 3.19102L16.1719 8.68494H9.82805L13 3.19102ZM11.7318 1.91367C11.7934 1.80698 11.8929 1.7306 12.0119 1.69871C12.131 1.66687 12.2553 1.68317 12.362 1.74487C12.4687 1.80647 12.5451 1.90595 12.577 2.02503C12.6089 2.14406 12.5925 2.26838 12.5309 2.37512L8.18858 9.89633C8.12698 10.003 8.0275 10.0794 7.90842 10.1113C7.78939 10.1431 7.66502 10.1268 7.55833 10.0651C7.33799 9.93797 7.26228 9.65522 7.38948 9.43488L11.7318 1.91367ZM25.1858 11.6975C25.1858 11.7124 25.1737 11.7246 25.1587 11.7246H23.4217C23.1969 11.7246 23.0146 11.9069 23.0146 12.1317C23.0146 12.3566 23.1969 12.5388 23.4217 12.5388H24.2883L23.5335 23.4835C23.5013 23.9512 23.1088 24.3175 22.64 24.3175H3.36004C2.89128 24.3175 2.49879 23.9512 2.46655 23.4835L1.71173 12.5388H21.6848C21.9096 12.5388 22.0919 12.3566 22.0919 12.1317C22.0919 11.9069 21.9096 11.7246 21.6848 11.7246H0.841344C0.826363 11.7246 0.814227 11.7124 0.814227 11.6975V9.52629C0.814227 9.51136 0.826363 9.49917 0.841344 9.49917H6.52453C6.45988 9.9951 6.69175 10.505 7.15117 10.7703C7.34769 10.8838 7.5658 10.9418 7.78685 10.9418C7.89765 10.9418 8.00917 10.9271 8.11911 10.8977C8.44822 10.8095 8.7233 10.5984 8.89363 10.3034L9.35792 9.49917H16.6419L17.1062 10.3034C17.2765 10.5985 17.5516 10.8095 17.8807 10.8977C17.9906 10.9271 18.1021 10.9418 18.213 10.9418C18.4341 10.9418 18.6522 10.8838 18.8487 10.7703C19.3081 10.505 19.54 9.9951 19.4754 9.49917H25.1586C25.1736 9.49917 25.1857 9.51141 25.1857 9.52629V11.6975H25.1858Z" fill="#21303D"/>
<path d="M12.9999 14.71C13.2543 14.71 13.4613 14.917 13.4613 15.1714C13.4613 15.3962 13.6435 15.5785 13.8684 15.5785C14.0932 15.5785 14.2755 15.3962 14.2755 15.1714C14.2755 14.468 13.7033 13.8958 12.9999 13.8958C12.2966 13.8958 11.7244 14.468 11.7244 15.1714V21.6849C11.7244 22.3883 12.2966 22.9605 12.9999 22.9605C13.7033 22.9605 14.2755 22.3883 14.2755 21.6849V16.9083C14.2755 16.6835 14.0933 16.5012 13.8684 16.5012C13.6436 16.5012 13.4613 16.6834 13.4613 16.9083V21.6849C13.4613 21.9394 13.2543 22.1463 12.9999 22.1463C12.7455 22.1463 12.5385 21.9394 12.5385 21.6849V15.1713C12.5385 14.917 12.7455 14.71 12.9999 14.71Z" fill="#21303D"/>
<path d="M16.474 14.71C16.7284 14.71 16.9354 14.917 16.9354 15.1714C16.9354 15.3962 17.1177 15.5785 17.3425 15.5785C17.5673 15.5785 17.7496 15.3962 17.7496 15.1714C17.7496 14.468 17.1774 13.8958 16.4741 13.8958C15.7707 13.8958 15.1985 14.468 15.1985 15.1714V21.6849C15.1985 22.3883 15.7707 22.9605 16.4741 22.9605C17.1774 22.9605 17.7496 22.3883 17.7496 21.6849V16.9083C17.7496 16.6835 17.5674 16.5012 17.3425 16.5012C17.1177 16.5012 16.9354 16.6834 16.9354 16.9083V21.6849C16.9354 21.9394 16.7284 22.1463 16.474 22.1463C16.2196 22.1463 16.0126 21.9394 16.0126 21.6849V15.1713C16.0127 14.917 16.2196 14.71 16.474 14.71Z" fill="#21303D"/>
<path d="M19.9479 14.71C20.2023 14.71 20.4093 14.917 20.4093 15.1714C20.4093 15.3962 20.5915 15.5785 20.8164 15.5785C21.0412 15.5785 21.2235 15.3962 21.2235 15.1714C21.2235 14.468 20.6513 13.8958 19.9479 13.8958C19.2446 13.8958 18.6724 14.468 18.6724 15.1714V21.6849C18.6724 22.3883 19.2446 22.9605 19.9479 22.9605C20.6513 22.9605 21.2235 22.3883 21.2235 21.6849V16.9083C21.2235 16.6835 21.0413 16.5012 20.8164 16.5012C20.5916 16.5012 20.4093 16.6834 20.4093 16.9083V21.6849C20.4093 21.9394 20.2023 22.1463 19.9479 22.1463C19.6935 22.1463 19.4865 21.9394 19.4865 21.6849V15.1713C19.4865 14.917 19.6935 14.71 19.9479 14.71Z" fill="#21303D"/>
<path d="M6.05213 14.71C6.30655 14.71 6.51353 14.917 6.51353 15.1714C6.51353 15.3962 6.69579 15.5785 6.92065 15.5785C7.14545 15.5785 7.32776 15.3962 7.32776 15.1714C7.32776 14.468 6.75556 13.8958 6.05219 13.8958C5.34881 13.8958 4.77661 14.468 4.77661 15.1714V21.6849C4.77661 22.3883 5.34881 22.9605 6.05219 22.9605C6.75556 22.9605 7.32776 22.3883 7.32776 21.6849V16.9083C7.32776 16.6835 7.14551 16.5012 6.92065 16.5012C6.69584 16.5012 6.51353 16.6834 6.51353 16.9083V21.6849C6.51353 21.9394 6.30655 22.1463 6.05213 22.1463C5.79772 22.1463 5.59074 21.9394 5.59074 21.6849V15.1713C5.59074 14.917 5.79772 14.71 6.05213 14.71Z" fill="#21303D"/>
<path d="M9.52601 14.71C9.78043 14.71 9.98741 14.917 9.98741 15.1714C9.98741 15.3962 10.1697 15.5785 10.3945 15.5785C10.6194 15.5785 10.8016 15.3962 10.8016 15.1714C10.8016 14.468 10.2294 13.8958 9.52606 13.8958C8.82269 13.8958 8.25049 14.468 8.25049 15.1714V21.6849C8.25049 22.3883 8.82269 22.9605 9.52606 22.9605C10.2294 22.9605 10.8016 22.3883 10.8016 21.6849V16.9083C10.8016 16.6835 10.6194 16.5012 10.3945 16.5012C10.1697 16.5012 9.98741 16.6834 9.98741 16.9083V21.6849C9.98741 21.9394 9.78043 22.1463 9.52601 22.1463C9.2716 22.1463 9.06461 21.9394 9.06461 21.6849V15.1713C9.06461 14.917 9.2716 14.71 9.52601 14.71Z" fill="#21303D"/>
</g>
</svg>

