<?xml version="1.0" encoding="utf-8"?><!-- Uploaded to: SVG Repo, www.svgrepo.com, Generator: SVG Repo Mixer Tools -->
<svg width="24" height="24" viewBox="0 0 24 24" fill="none" xmlns="http://www.w3.org/2000/svg">
<g clip-path="url(#clip0_49_357)">
<path d="M22.862 19.4712C23.0628 19.4719 23.2551 19.5518 23.3972 19.6937C23.5392 19.8356 23.6194 20.0279 23.6202 20.2287V20.8447C23.6197 21.0459 23.5398 21.2388 23.3978 21.3813C23.2558 21.5238 23.0632 21.6044 22.862 21.6056H1.13676C0.935647 21.6045 0.743134 21.5239 0.601274 21.3813C0.459414 21.2388 0.379725 21.0459 0.379639 20.8447L0.379639 20.2294C0.380086 20.0287 0.459975 19.8363 0.601854 19.6944C0.743733 19.5524 0.936068 19.4724 1.13676 19.4719L22.862 19.4712Z" fill="#3C4660"/>
<path d="M9.91185 17.0763C10.5967 17.0761 11.2662 17.279 11.8357 17.6593C12.4052 18.0396 12.8491 18.5802 13.1114 19.2129C13.3736 19.8455 13.4424 20.5416 13.3089 21.2133C13.1755 21.885 12.8459 22.5021 12.3618 22.9864C11.8776 23.4708 11.2608 23.8007 10.5891 23.9345C9.9175 24.0682 9.22132 23.9998 8.58857 23.7379C7.95582 23.476 7.41493 23.0323 7.03435 22.463C6.65377 21.8936 6.45057 21.2242 6.45044 20.5394C6.45022 20.0847 6.53957 19.6344 6.71342 19.2143C6.88728 18.7941 7.14223 18.4123 7.46367 18.0907C7.78512 17.7691 8.16677 17.514 8.58683 17.34C9.0069 17.1659 9.45714 17.0763 9.91185 17.0763Z" fill="#21303D"/>
<path d="M9.91182 18.5002C10.315 18.5004 10.709 18.6201 11.0441 18.8443C11.3792 19.0684 11.6404 19.3868 11.7946 19.7593C11.9488 20.1318 11.989 20.5417 11.9103 20.9371C11.8316 21.3325 11.6374 21.6956 11.3523 21.9807C11.0672 22.2657 10.704 22.4599 10.3086 22.5385C9.91317 22.6172 9.50334 22.5768 9.13086 22.4226C8.75838 22.2684 8.43998 22.0072 8.21593 21.672C7.99187 21.3368 7.8722 20.9428 7.87207 20.5396C7.87189 20.2717 7.92454 20.0064 8.02699 19.7589C8.12944 19.5114 8.27969 19.2865 8.46914 19.097C8.65859 18.9076 8.88352 18.7574 9.13107 18.655C9.37862 18.5526 9.64392 18.5 9.91182 18.5002Z" fill="#B9CADB"/>
<path d="M0.379639 12.308L0.379639 11.691C0.379594 11.5915 0.399145 11.493 0.437173 11.4011C0.475201 11.3092 0.530963 11.2257 0.601271 11.1554C0.67158 11.085 0.755058 11.0292 0.846937 10.9912C0.938816 10.9531 1.03729 10.9335 1.13675 10.9335L22.863 10.9335C23.0638 10.9335 23.2562 11.0132 23.3982 11.1552C23.5401 11.2971 23.6198 11.4896 23.6198 11.6903V12.3087C23.6198 12.5095 23.5401 12.7022 23.3981 12.8442C23.2561 12.9862 23.0635 13.0661 22.8627 13.0662L1.13777 13.0662C0.936698 13.0662 0.743865 12.9863 0.601689 12.8441C0.459513 12.7019 0.379639 12.5091 0.379639 12.308Z" fill="#3C4660"/>
<path d="M15.7934 8.53742C16.4783 8.53735 17.1477 8.74038 17.7172 9.12083C18.2866 9.50128 18.7305 10.0421 18.9926 10.6748C19.2547 11.3075 19.3232 12.0037 19.1896 12.6754C19.056 13.3471 18.7262 13.964 18.2419 14.4483C17.7576 14.9325 17.1406 15.2623 16.4689 15.3958C15.7972 15.5294 15.101 15.4607 14.4683 15.1986C13.8356 14.9364 13.2949 14.4925 12.9145 13.923C12.5341 13.3535 12.3312 12.684 12.3313 11.9992C12.3317 11.0811 12.6967 10.2008 13.3459 9.55173C13.995 8.90261 14.8754 8.53778 15.7934 8.53742Z" fill="#21303D"/>
<path d="M15.7933 9.95943C16.1968 9.95937 16.5911 10.0789 16.9266 10.303C17.2621 10.5271 17.5236 10.8457 17.678 11.2184C17.8325 11.5911 17.8729 12.0012 17.7943 12.3969C17.7156 12.7926 17.5213 13.1561 17.2361 13.4414C16.9508 13.7267 16.5874 13.921 16.1917 13.9997C15.796 14.0785 15.3859 14.0381 15.0132 13.8837C14.6404 13.7293 14.3218 13.4679 14.0977 13.1324C13.8735 12.797 13.7539 12.4026 13.7539 11.9992C13.7539 11.7313 13.8066 11.4661 13.909 11.2186C14.0115 10.9711 14.1617 10.7463 14.3511 10.5569C14.5405 10.3675 14.7653 10.2172 15.0128 10.1147C15.2602 10.0122 15.5255 9.95943 15.7933 9.95943Z" fill="#B9CADB"/>
<path d="M0.379639 3.77032L0.379639 3.15324C0.379594 3.05378 0.399145 2.95529 0.437173 2.8634C0.475201 2.7715 0.530963 2.688 0.601271 2.61766C0.67158 2.54732 0.755058 2.49152 0.846937 2.45345C0.938816 2.41538 1.03729 2.39579 1.13675 2.39579L22.863 2.39579C23.0638 2.39579 23.2562 2.47552 23.3982 2.61744C23.5401 2.75936 23.6198 2.95185 23.6198 3.15256V3.77099C23.6198 3.97182 23.5401 4.16443 23.3981 4.30647C23.2561 4.44851 23.0635 4.52835 22.8627 4.52844L1.13777 4.52844C0.936698 4.52844 0.743865 4.44857 0.601689 4.30639C0.459513 4.16422 0.379639 3.97138 0.379639 3.77032Z" fill="#3C4660"/>
<path d="M6.02144 2.81334e-05C6.70601 0.000162125 7.37517 0.203283 7.94431 0.58371C8.51344 0.964136 8.95698 1.50479 9.21887 2.13729C9.48075 2.76979 9.54922 3.46574 9.41559 4.13714C9.28195 4.80855 8.95223 5.42526 8.46812 5.90928C7.984 6.3933 7.36721 6.72289 6.69578 6.85639C6.02435 6.98989 5.32842 6.9213 4.69597 6.6593C4.06352 6.39729 3.52297 5.95364 3.14266 5.38443C2.76234 4.81522 2.55933 4.14601 2.55933 3.46143C2.55933 3.00682 2.64889 2.55665 2.82289 2.13665C2.99688 1.71665 3.25193 1.33504 3.57343 1.01361C3.89492 0.692182 4.27655 0.437233 4.69659 0.263321C5.11662 0.0894089 5.56682 -6.10352e-05 6.02144 2.81334e-05Z" fill="#21303D"/>
<path d="M6.02144 1.42337C6.42465 1.42357 6.81876 1.54333 7.15391 1.7675C7.48906 1.99167 7.7502 2.3102 7.90433 2.68278C8.05846 3.05537 8.09864 3.46529 8.0198 3.86072C7.94097 4.25615 7.74666 4.61932 7.46143 4.90431C7.1762 5.18931 6.81286 5.38333 6.41736 5.46184C6.02187 5.54034 5.61199 5.49981 5.23953 5.34537C4.86707 5.19093 4.54878 4.9295 4.32488 4.59417C4.10099 4.25883 3.98156 3.86464 3.98169 3.46143C3.98205 2.92072 4.19713 2.40229 4.57963 2.02011C4.96213 1.63793 5.48073 1.42328 6.02144 1.42337Z" fill="#B9CADB"/>
</g>
</svg>

