<?xml version="1.0" encoding="utf-8"?><!-- Uploaded to: SVG Repo, www.svgrepo.com, Generator: SVG Repo Mixer Tools -->
<svg width="24" height="24" viewBox="0 0 24 24" fill="none" xmlns="http://www.w3.org/2000/svg">
<path d="M22.8322 5.26318V18.6003H1.125V5.26318H22.8322ZM3.13081 16.5975H10.9907C10.9907 14.4268 9.23065 12.6675 7.06075 12.6675C4.8901 12.6675 3.13081 14.4268 3.13081 16.5975ZM9.69595 9.92217C9.69595 8.46633 8.51584 7.28697 7.06075 7.28697C5.60491 7.28697 4.4248 8.46633 4.4248 9.92217C4.4248 11.378 5.60491 12.5574 7.06075 12.5574C8.51584 12.5574 9.69595 11.378 9.69595 9.92217Z" fill="#A6C8E5"/>
<path d="M10.9907 16.5975H3.13086C3.13086 14.4268 4.89016 12.6675 7.0608 12.6675C9.2307 12.6675 10.9907 14.4268 10.9907 16.5975ZM7.0608 7.28699C8.51589 7.28699 9.696 8.46635 9.696 9.92218C9.696 11.378 8.51589 12.5574 7.0608 12.5574C5.60496 12.5574 4.42486 11.378 4.42486 9.92218C4.42486 8.46635 5.60496 7.28699 7.0608 7.28699Z" fill="#759FCB"/>
<path d="M22.8323 19.1248H1.12508C0.985974 19.1248 0.852567 19.0696 0.754206 18.9712C0.655845 18.8729 0.600586 18.7394 0.600586 18.6003V5.26326C0.600586 5.12416 0.655845 4.99075 0.754206 4.89239C0.852567 4.79403 0.985974 4.73877 1.12508 4.73877H22.8323C22.9714 4.73877 23.1048 4.79403 23.2032 4.89239C23.3015 4.99075 23.3568 5.12416 23.3568 5.26326V18.6003C23.3568 18.7394 23.3015 18.8729 23.2032 18.9712C23.1048 19.0696 22.9714 19.1248 22.8323 19.1248ZM1.64957 18.0759H22.3078V5.78775H1.64957V18.0759Z" fill="#21303D"/>
<path d="M7.06083 13.0819C5.31817 13.0819 3.90039 11.6645 3.90039 9.9222C3.90039 8.17991 5.31817 6.76251 7.06083 6.76251C8.80304 6.76251 10.2205 8.17991 10.2205 9.9222C10.2205 11.6645 8.80312 13.0819 7.06083 13.0819ZM7.06083 7.81157C5.89653 7.81157 4.94937 8.75843 4.94937 9.92228C4.94937 11.0861 5.89661 12.033 7.06083 12.033C8.22468 12.033 9.17153 11.0861 9.17153 9.92228C9.17153 8.75843 8.22468 7.81157 7.06083 7.81157Z" fill="#21303D"/>
<path d="M10.9906 17.122C10.8515 17.122 10.7181 17.0667 10.6197 16.9683C10.5213 16.87 10.4661 16.7366 10.4661 16.5975C10.4661 14.7196 8.93839 13.192 7.06064 13.192C5.18288 13.192 3.65518 14.7197 3.65518 16.5975C3.65518 16.7366 3.59993 16.87 3.50156 16.9683C3.4032 17.0667 3.2698 17.122 3.13069 17.122C2.99159 17.122 2.85818 17.0667 2.75982 16.9683C2.66146 16.87 2.6062 16.7366 2.6062 16.5975C2.6062 14.1413 4.60444 12.143 7.06064 12.143C9.51683 12.143 11.5151 14.1413 11.5151 16.5975C11.5151 16.8872 11.2803 17.122 10.9906 17.122ZM20.8443 9.31009H13.3515C13.2124 9.31009 13.079 9.25483 12.9807 9.15647C12.8823 9.05811 12.827 8.9247 12.827 8.7856C12.827 8.6465 12.8823 8.51309 12.9807 8.41473C13.079 8.31637 13.2124 8.26111 13.3515 8.26111H20.8443C20.9834 8.26111 21.1168 8.31637 21.2152 8.41473C21.3135 8.51309 21.3688 8.6465 21.3688 8.7856C21.3688 8.9247 21.3135 9.05811 21.2152 9.15647C21.1168 9.25483 20.9834 9.31009 20.8443 9.31009ZM20.8443 12.532H13.3515C13.2124 12.532 13.079 12.4767 12.9807 12.3784C12.8823 12.28 12.827 12.1466 12.827 12.0075C12.827 11.8684 12.8823 11.735 12.9807 11.6366C13.079 11.5382 13.2124 11.483 13.3515 11.483H20.8443C20.9834 11.483 21.1168 11.5382 21.2152 11.6366C21.3135 11.735 21.3688 11.8684 21.3688 12.0075C21.3688 12.1466 21.3135 12.28 21.2152 12.3784C21.1168 12.4767 20.9834 12.532 20.8443 12.532ZM20.8443 15.7539H13.3515C13.2827 15.7539 13.2145 15.7403 13.1508 15.7139C13.0872 15.6876 13.0294 15.6489 12.9807 15.6002C12.932 15.5515 12.8933 15.4937 12.867 15.4301C12.8406 15.3664 12.827 15.2982 12.827 15.2294C12.827 15.1605 12.8406 15.0923 12.867 15.0286C12.8933 14.965 12.932 14.9072 12.9807 14.8585C13.0294 14.8098 13.0872 14.7711 13.1508 14.7448C13.2145 14.7184 13.2827 14.7049 13.3515 14.7049H20.8443C20.9834 14.7049 21.1168 14.7601 21.2152 14.8585C21.3135 14.9568 21.3688 15.0903 21.3688 15.2294C21.3688 15.3685 21.3135 15.5019 21.2152 15.6002C21.1168 15.6986 20.9834 15.7539 20.8443 15.7539Z" fill="#21303D"/>
</svg>
