<?xml version="1.0" encoding="utf-8"?><!-- Uploaded to: SVG Repo, www.svgrepo.com, Generator: SVG Repo Mixer Tools -->
<svg width="24" height="24" viewBox="0 0 24 24" fill="none" xmlns="http://www.w3.org/2000/svg">
<g clip-path="url(#clip0_49_438)">
<path d="M7.86206 13.6551H3.72412V10.0427C3.72412 9.75224 3.95915 9.51721 4.24964 9.51721H7.33654C7.62703 9.51721 7.86206 9.75224 7.86206 10.0427V13.6551Z" fill="#707487"/>
<path d="M14.0688 13.6551H9.93091V10.0427C9.93091 9.75224 10.1659 9.51721 10.4564 9.51721H13.5433C13.8338 9.51721 14.0688 9.75224 14.0688 10.0427V13.6551Z" fill="#707487"/>
<path d="M20.2759 13.6551H16.1379V10.0427C16.1379 9.75224 16.373 9.51721 16.6635 9.51721H19.7504C20.0408 9.51721 20.2759 9.75224 20.2759 10.0427V13.6551Z" fill="#707487"/>
<path d="M7.86206 21.5172H3.72412V17.9048C3.72412 17.6144 3.95915 17.3793 4.24964 17.3793H7.33654C7.62703 17.3793 7.86206 17.6144 7.86206 17.9048V21.5172Z" fill="#707487"/>
<path d="M14.0688 21.5172H9.93091V17.9048C9.93091 17.6144 10.1659 17.3793 10.4564 17.3793H13.5433C13.8338 17.3793 14.0688 17.6144 14.0688 17.9048V21.5172Z" fill="#707487"/>
<path d="M20.2759 21.5172H16.1379V17.9048C16.1379 17.6144 16.373 17.3793 16.6635 17.3793H19.7504C20.0408 17.3793 20.2759 17.6144 20.2759 17.9048V21.5172Z" fill="#707487"/>
<path d="M7.86206 5.79309H3.72412V2.18067C3.72412 1.89018 3.95915 1.65515 4.24964 1.65515H7.33654C7.62703 1.65515 7.86206 1.89018 7.86206 2.18067V5.79309Z" fill="#707487"/>
<path d="M14.0688 5.79309H9.93091V2.18067C9.93091 1.89018 10.1659 1.65515 10.4564 1.65515H13.5433C13.8338 1.65515 14.0688 1.89018 14.0688 2.18067V5.79309Z" fill="#707487"/>
<path d="M20.2759 5.79309H16.1379V2.18067C16.1379 1.89018 16.373 1.65515 16.6635 1.65515H19.7504C20.0408 1.65515 20.2759 1.89018 20.2759 2.18067V5.79309Z" fill="#707487"/>
<path d="M1.65503 6.20691H22.3447V5.37933H1.65503V6.20691Z" fill="#759FCB"/>
<path d="M1.65503 14.069H22.3447V13.2414H1.65503V14.069Z" fill="#759FCB"/>
<path d="M1.65503 21.931H22.3447V21.1035H1.65503V21.931Z" fill="#759FCB"/>
<path d="M1.65516 24H0V0.827578C0 0.370359 0.370359 0 0.827578 0C1.2848 0 1.65516 0.370359 1.65516 0.827578V24Z" fill="#21303D"/>
<path d="M23.9999 24H22.3447V0.827578C22.3447 0.370359 22.715 0 23.1723 0C23.6296 0 23.9999 0.370359 23.9999 0.827578V24Z" fill="#21303D"/>
</g>
</svg>

